<svg width="649" height="59" viewBox="0 0 649 59" fill="none" xmlns="http://www.w3.org/2000/svg">
<rect x="0.5" y="0.5" width="648" height="58" rx="29" fill="#1D2D40" fill-opacity="0.9"/>
<rect x="0.5" y="0.5" width="648" height="58" rx="29" stroke="url(#paint0_linear_95_1928)"/>
<path d="M25 30.5C25.5523 30.5 26 30.0523 26 29.5C26 28.9477 25.5523 28.5 25 28.5C24.4477 28.5 24 28.9477 24 29.5C24 30.0523 24.4477 30.5 25 30.5Z" stroke="white" stroke-width="2" stroke-linecap="round" stroke-linejoin="round"/>
<path d="M25 23.5C25.5523 23.5 26 23.0523 26 22.5C26 21.9477 25.5523 21.5 25 21.5C24.4477 21.5 24 21.9477 24 22.5C24 23.0523 24.4477 23.5 25 23.5Z" stroke="white" stroke-width="2" stroke-linecap="round" stroke-linejoin="round"/>
<path d="M25 37.5C25.5523 37.5 26 37.0523 26 36.5C26 35.9477 25.5523 35.5 25 35.5C24.4477 35.5 24 35.9477 24 36.5C24 37.0523 24.4477 37.5 25 37.5Z" stroke="white" stroke-width="2" stroke-linecap="round" stroke-linejoin="round"/>
<path d="M31 30.5C31.5523 30.5 32 30.0523 32 29.5C32 28.9477 31.5523 28.5 31 28.5C30.4477 28.5 30 28.9477 30 29.5C30 30.0523 30.4477 30.5 31 30.5Z" stroke="white" stroke-width="2" stroke-linecap="round" stroke-linejoin="round"/>
<path d="M31 23.5C31.5523 23.5 32 23.0523 32 22.5C32 21.9477 31.5523 21.5 31 21.5C30.4477 21.5 30 21.9477 30 22.5C30 23.0523 30.4477 23.5 31 23.5Z" stroke="white" stroke-width="2" stroke-linecap="round" stroke-linejoin="round"/>
<path d="M31 37.5C31.5523 37.5 32 37.0523 32 36.5C32 35.9477 31.5523 35.5 31 35.5C30.4477 35.5 30 35.9477 30 36.5C30 37.0523 30.4477 37.5 31 37.5Z" stroke="white" stroke-width="2" stroke-linecap="round" stroke-linejoin="round"/>
<line x1="56.5" y1="12" x2="56.5" y2="47" stroke="#757E8A"/>
<rect x="72" y="12" width="109" height="35" rx="16" fill="#515C6C"/>
<path d="M121.278 35V23.3636H125.54C126.366 23.3636 127.049 23.5 127.591 23.7727C128.133 24.0417 128.538 24.4072 128.807 24.8693C129.076 25.3277 129.21 25.8447 129.21 26.4205C129.21 26.9053 129.121 27.3144 128.943 27.6477C128.765 27.9773 128.527 28.2424 128.227 28.4432C127.932 28.6402 127.606 28.7841 127.25 28.875V28.9886C127.636 29.0076 128.013 29.1326 128.381 29.3636C128.752 29.5909 129.059 29.9148 129.301 30.3352C129.544 30.7557 129.665 31.267 129.665 31.8693C129.665 32.464 129.525 32.9981 129.244 33.4716C128.968 33.9413 128.54 34.3144 127.96 34.5909C127.381 34.8636 126.64 35 125.739 35H121.278ZM123.034 33.4943H125.568C126.409 33.4943 127.011 33.3314 127.375 33.0057C127.739 32.6799 127.92 32.2727 127.92 31.7841C127.92 31.4167 127.828 31.0795 127.642 30.7727C127.456 30.4659 127.191 30.2216 126.847 30.0398C126.506 29.858 126.1 29.767 125.631 29.767H123.034V33.4943ZM123.034 28.3977H125.386C125.78 28.3977 126.134 28.322 126.449 28.1705C126.767 28.0189 127.019 27.8068 127.205 27.5341C127.394 27.2576 127.489 26.9318 127.489 26.5568C127.489 26.0758 127.32 25.6723 126.983 25.3466C126.646 25.0208 126.129 24.858 125.432 24.858H123.034V28.3977ZM137.139 31.3807V26.2727H138.844V35H137.173V33.4886H137.082C136.882 33.9545 136.56 34.3428 136.116 34.6534C135.677 34.9602 135.13 35.1136 134.474 35.1136C133.914 35.1136 133.418 34.9905 132.986 34.7443C132.558 34.4943 132.221 34.125 131.974 33.6364C131.732 33.1477 131.611 32.5436 131.611 31.8239V26.2727H133.31V31.6193C133.31 32.214 133.474 32.6875 133.804 33.0398C134.134 33.392 134.562 33.5682 135.088 33.5682C135.406 33.5682 135.723 33.4886 136.037 33.3295C136.355 33.1705 136.618 32.9299 136.827 32.608C137.039 32.286 137.143 31.8769 137.139 31.3807ZM142.2 38.2727C141.946 38.2727 141.715 38.2519 141.507 38.2102C141.299 38.1723 141.143 38.1307 141.041 38.0852L141.45 36.6932C141.761 36.7765 142.037 36.8125 142.28 36.8011C142.522 36.7898 142.736 36.6989 142.922 36.5284C143.111 36.358 143.278 36.0795 143.422 35.6932L143.632 35.1136L140.439 26.2727H142.257L144.467 33.0455H144.558L146.768 26.2727H148.592L144.996 36.1648C144.829 36.6193 144.617 37.0038 144.359 37.3182C144.102 37.6364 143.795 37.875 143.439 38.0341C143.083 38.1932 142.67 38.2727 142.2 38.2727ZM153.653 35.1761C152.794 35.1761 152.053 34.9924 151.432 34.625C150.814 34.2538 150.337 33.733 150 33.0625C149.667 32.3883 149.5 31.5985 149.5 30.6932C149.5 29.7992 149.667 29.0114 150 28.3295C150.337 27.6477 150.807 27.1155 151.409 26.733C152.015 26.3504 152.723 26.1591 153.534 26.1591C154.027 26.1591 154.504 26.2405 154.966 26.4034C155.428 26.5663 155.843 26.822 156.21 27.1705C156.578 27.5189 156.867 27.9716 157.08 28.5284C157.292 29.0814 157.398 29.7538 157.398 30.5455V31.1477H150.46V29.875H155.733C155.733 29.428 155.642 29.0322 155.46 28.6875C155.278 28.339 155.023 28.0644 154.693 27.8636C154.367 27.6629 153.985 27.5625 153.545 27.5625C153.068 27.5625 152.652 27.6799 152.295 27.9148C151.943 28.1458 151.67 28.4489 151.477 28.8239C151.288 29.1951 151.193 29.5985 151.193 30.0341V31.0284C151.193 31.6117 151.295 32.108 151.5 32.517C151.708 32.9261 151.998 33.2386 152.369 33.4545C152.741 33.6667 153.174 33.7727 153.67 33.7727C153.992 33.7727 154.286 33.7273 154.551 33.6364C154.816 33.5417 155.045 33.4015 155.239 33.2159C155.432 33.0303 155.58 32.8011 155.682 32.5284L157.29 32.8182C157.161 33.2917 156.93 33.7064 156.597 34.0625C156.267 34.4148 155.852 34.6894 155.352 34.8864C154.856 35.0795 154.29 35.1761 153.653 35.1761ZM159.283 35V26.2727H160.925V27.6591H161.016C161.175 27.1894 161.455 26.8201 161.857 26.5511C162.262 26.2784 162.72 26.142 163.232 26.142C163.338 26.142 163.463 26.1458 163.607 26.1534C163.754 26.161 163.87 26.1705 163.953 26.1818V27.8068C163.885 27.7879 163.764 27.767 163.589 27.7443C163.415 27.7178 163.241 27.7045 163.067 27.7045C162.665 27.7045 162.307 27.7898 161.993 27.9602C161.682 28.1269 161.436 28.3598 161.254 28.6591C161.072 28.9545 160.982 29.2917 160.982 29.6705V35H159.283Z" fill="white"/>
<rect x="71" y="12" width="35" height="35" rx="17.5" fill="#F4F4F5"/>
<path d="M84.0046 36V23.2727H88.8768C89.7965 23.2727 90.5609 23.4177 91.1699 23.7077C91.7831 23.9936 92.2409 24.3851 92.5433 24.8823C92.8499 25.3794 93.0032 25.9429 93.0032 26.5726C93.0032 27.0905 92.9037 27.5338 92.7049 27.9025C92.506 28.2671 92.2388 28.5633 91.9032 28.7912C91.5676 29.0191 91.1927 29.1827 90.7784 29.2821V29.4064C91.23 29.4313 91.6629 29.5701 92.0772 29.8228C92.4957 30.0714 92.8375 30.4235 93.1026 30.8793C93.3678 31.335 93.5003 31.886 93.5003 32.5323C93.5003 33.1911 93.3408 33.7835 93.0218 34.3097C92.7028 34.8317 92.2222 35.2439 91.5801 35.5463C90.9379 35.8488 90.13 36 89.1564 36H84.0046ZM86.3102 34.0735H88.7898C89.6266 34.0735 90.2294 33.914 90.5982 33.595C90.971 33.2718 91.1575 32.8575 91.1575 32.3521C91.1575 31.9751 91.0643 31.6354 90.8778 31.3329C90.6914 31.0263 90.4262 30.786 90.0824 30.612C89.7385 30.4339 89.3283 30.3448 88.8519 30.3448H86.3102V34.0735ZM86.3102 28.6855H88.5909C88.9886 28.6855 89.347 28.613 89.666 28.468C89.985 28.3189 90.2357 28.1097 90.4179 27.8404C90.6044 27.5669 90.6976 27.2438 90.6976 26.8709C90.6976 26.3779 90.5236 25.9719 90.1756 25.6529C89.8317 25.3339 89.3201 25.1744 88.6406 25.1744H86.3102V28.6855Z" fill="black"/>
<rect x="197" y="12" width="126" height="35" rx="16" fill="#515C6C"/>
<path d="M227 35.5L224.133 32.6333M225.667 28.8333C225.667 31.7789 223.279 34.1667 220.333 34.1667C217.388 34.1667 215 31.7789 215 28.8333C215 25.8878 217.388 23.5 220.333 23.5C223.279 23.5 225.667 25.8878 225.667 28.8333Z" stroke="white" stroke-width="1.5" stroke-linecap="round" stroke-linejoin="round"/>
<path d="M237.977 35V33.8295L244.097 24.875H237.926V23.3636H246.244V24.5341L240.125 33.4886H246.295V35H237.977ZM248.361 35V26.2727H250.06V35H248.361ZM249.219 24.9261C248.923 24.9261 248.67 24.8277 248.457 24.6307C248.249 24.4299 248.145 24.1913 248.145 23.9148C248.145 23.6345 248.249 23.3958 248.457 23.1989C248.67 22.9981 248.923 22.8977 249.219 22.8977C249.514 22.8977 249.766 22.9981 249.974 23.1989C250.187 23.3958 250.293 23.6345 250.293 23.9148C250.293 24.1913 250.187 24.4299 249.974 24.6307C249.766 24.8277 249.514 24.9261 249.219 24.9261ZM252.345 38.2727V26.2727H254.004V27.6875H254.146C254.245 27.5057 254.387 27.2955 254.572 27.0568C254.758 26.8182 255.016 26.6098 255.345 26.4318C255.675 26.25 256.11 26.1591 256.652 26.1591C257.357 26.1591 257.985 26.3371 258.538 26.6932C259.091 27.0492 259.525 27.5625 259.839 28.233C260.158 28.9034 260.317 29.7102 260.317 30.6534C260.317 31.5966 260.16 32.4053 259.845 33.0795C259.531 33.75 259.099 34.267 258.55 34.6307C258 34.9905 257.374 35.1705 256.669 35.1705C256.139 35.1705 255.705 35.0814 255.368 34.9034C255.035 34.7254 254.773 34.517 254.584 34.2784C254.394 34.0398 254.249 33.8277 254.146 33.642H254.044V38.2727H252.345ZM254.01 30.6364C254.01 31.25 254.099 31.7879 254.277 32.25C254.455 32.7121 254.713 33.0739 255.05 33.3352C255.387 33.5928 255.8 33.7216 256.288 33.7216C256.796 33.7216 257.22 33.5871 257.561 33.3182C257.902 33.0455 258.16 32.6761 258.334 32.2102C258.512 31.7443 258.601 31.2197 258.601 30.6364C258.601 30.0606 258.514 29.5436 258.339 29.0852C258.169 28.6269 257.911 28.2652 257.567 28C257.226 27.7348 256.8 27.6023 256.288 27.6023C255.796 27.6023 255.379 27.7292 255.038 27.983C254.701 28.2367 254.446 28.5909 254.271 29.0455C254.097 29.5 254.01 30.0303 254.01 30.6364ZM276.256 27.1477H274.483C274.415 26.7689 274.288 26.4356 274.102 26.1477C273.917 25.8598 273.689 25.6155 273.42 25.4148C273.152 25.214 272.85 25.0625 272.517 24.9602C272.188 24.858 271.837 24.8068 271.466 24.8068C270.795 24.8068 270.195 24.9754 269.665 25.3125C269.138 25.6496 268.722 26.1439 268.415 26.7955C268.112 27.447 267.96 28.2424 267.96 29.1818C267.96 30.1288 268.112 30.928 268.415 31.5795C268.722 32.2311 269.14 32.7235 269.67 33.0568C270.201 33.3902 270.797 33.5568 271.46 33.5568C271.828 33.5568 272.176 33.5076 272.506 33.4091C272.839 33.3068 273.14 33.1572 273.409 32.9602C273.678 32.7633 273.905 32.5227 274.091 32.2386C274.28 31.9508 274.411 31.6212 274.483 31.25L276.256 31.2557C276.161 31.8277 275.977 32.3542 275.705 32.8352C275.436 33.3125 275.089 33.7254 274.665 34.0739C274.244 34.4186 273.763 34.6856 273.222 34.875C272.68 35.0644 272.089 35.1591 271.449 35.1591C270.441 35.1591 269.544 34.9205 268.756 34.4432C267.968 33.9621 267.347 33.2746 266.892 32.3807C266.441 31.4867 266.216 30.4205 266.216 29.1818C266.216 27.9394 266.443 26.8731 266.898 25.983C267.352 25.089 267.973 24.4034 268.761 23.9261C269.549 23.4451 270.445 23.2045 271.449 23.2045C272.066 23.2045 272.642 23.2936 273.176 23.4716C273.714 23.6458 274.197 23.9034 274.625 24.2443C275.053 24.5814 275.407 24.9943 275.688 25.483C275.968 25.9678 276.157 26.5227 276.256 27.1477ZM281.896 35.1761C281.078 35.1761 280.364 34.9886 279.754 34.6136C279.144 34.2386 278.671 33.714 278.334 33.0398C277.997 32.3655 277.828 31.5777 277.828 30.6761C277.828 29.7708 277.997 28.9792 278.334 28.3011C278.671 27.6231 279.144 27.0966 279.754 26.7216C280.364 26.3466 281.078 26.1591 281.896 26.1591C282.714 26.1591 283.429 26.3466 284.038 26.7216C284.648 27.0966 285.122 27.6231 285.459 28.3011C285.796 28.9792 285.964 29.7708 285.964 30.6761C285.964 31.5777 285.796 32.3655 285.459 33.0398C285.122 33.714 284.648 34.2386 284.038 34.6136C283.429 34.9886 282.714 35.1761 281.896 35.1761ZM281.902 33.75C282.432 33.75 282.872 33.6098 283.22 33.3295C283.569 33.0492 283.826 32.6761 283.993 32.2102C284.163 31.7443 284.249 31.2311 284.249 30.6705C284.249 30.1136 284.163 29.6023 283.993 29.1364C283.826 28.6667 283.569 28.2898 283.22 28.0057C282.872 27.7216 282.432 27.5795 281.902 27.5795C281.368 27.5795 280.925 27.7216 280.572 28.0057C280.224 28.2898 279.964 28.6667 279.794 29.1364C279.627 29.6023 279.544 30.1136 279.544 30.6705C279.544 31.2311 279.627 31.7443 279.794 32.2102C279.964 32.6761 280.224 33.0492 280.572 33.3295C280.925 33.6098 281.368 33.75 281.902 33.75ZM291.128 35.1705C290.423 35.1705 289.795 34.9905 289.241 34.6307C288.692 34.267 288.26 33.75 287.946 33.0795C287.635 32.4053 287.48 31.5966 287.48 30.6534C287.48 29.7102 287.637 28.9034 287.952 28.233C288.27 27.5625 288.705 27.0492 289.259 26.6932C289.812 26.3371 290.438 26.1591 291.139 26.1591C291.681 26.1591 292.116 26.25 292.446 26.4318C292.779 26.6098 293.037 26.8182 293.219 27.0568C293.404 27.2955 293.548 27.5057 293.651 27.6875H293.753V23.3636H295.452V35H293.793V33.642H293.651C293.548 33.8277 293.401 34.0398 293.207 34.2784C293.018 34.517 292.757 34.7254 292.423 34.9034C292.09 35.0814 291.658 35.1705 291.128 35.1705ZM291.503 33.7216C291.991 33.7216 292.404 33.5928 292.741 33.3352C293.082 33.0739 293.34 32.7121 293.514 32.25C293.692 31.7879 293.781 31.25 293.781 30.6364C293.781 30.0303 293.694 29.5 293.52 29.0455C293.346 28.5909 293.09 28.2367 292.753 27.983C292.416 27.7292 291.999 27.6023 291.503 27.6023C290.991 27.6023 290.565 27.7348 290.224 28C289.884 28.2652 289.626 28.6269 289.452 29.0852C289.281 29.5436 289.196 30.0606 289.196 30.6364C289.196 31.2197 289.283 31.7443 289.457 32.2102C289.632 32.6761 289.889 33.0455 290.23 33.3182C290.575 33.5871 290.999 33.7216 291.503 33.7216ZM301.638 35.1761C300.778 35.1761 300.037 34.9924 299.416 34.625C298.799 34.2538 298.321 33.733 297.984 33.0625C297.651 32.3883 297.484 31.5985 297.484 30.6932C297.484 29.7992 297.651 29.0114 297.984 28.3295C298.321 27.6477 298.791 27.1155 299.393 26.733C300 26.3504 300.708 26.1591 301.518 26.1591C302.011 26.1591 302.488 26.2405 302.95 26.4034C303.412 26.5663 303.827 26.822 304.195 27.1705C304.562 27.5189 304.852 27.9716 305.064 28.5284C305.276 29.0814 305.382 29.7538 305.382 30.5455V31.1477H298.445V29.875H303.717C303.717 29.428 303.626 29.0322 303.445 28.6875C303.263 28.339 303.007 28.0644 302.678 27.8636C302.352 27.6629 301.969 27.5625 301.53 27.5625C301.053 27.5625 300.636 27.6799 300.28 27.9148C299.928 28.1458 299.655 28.4489 299.462 28.8239C299.272 29.1951 299.178 29.5985 299.178 30.0341V31.0284C299.178 31.6117 299.28 32.108 299.484 32.517C299.693 32.9261 299.982 33.2386 300.354 33.4545C300.725 33.6667 301.159 33.7727 301.655 33.7727C301.977 33.7727 302.27 33.7273 302.536 33.6364C302.801 33.5417 303.03 33.4015 303.223 33.2159C303.416 33.0303 303.564 32.8011 303.666 32.5284L305.274 32.8182C305.145 33.2917 304.914 33.7064 304.581 34.0625C304.251 34.4148 303.837 34.6894 303.337 34.8864C302.84 35.0795 302.274 35.1761 301.638 35.1761Z" fill="white"/>
<rect x="351.5" y="12" width="35" height="35" rx="17.5" fill="#C28D3C"/>
<path d="M375 29.5C375 30.6867 374.648 31.8467 373.989 32.8334C373.33 33.8201 372.392 34.5892 371.296 35.0433C370.2 35.4974 368.993 35.6162 367.829 35.3847C366.666 35.1532 365.596 34.5818 364.757 33.7426C363.918 32.9035 363.347 31.8344 363.115 30.6705C362.884 29.5067 363.003 28.3003 363.457 27.2039C363.911 26.1075 364.68 25.1705 365.667 24.5112C366.653 23.8519 367.813 23.5 369 23.5C370.68 23.5 372.287 24.1667 373.493 25.3267L375 26.8333M375 26.8333L375 23.5M375 26.8333H371.667" stroke="white" stroke-width="1.33333" stroke-linecap="round" stroke-linejoin="round"/>
<rect x="394.5" y="12" width="35" height="35" rx="17.5" fill="#C93C34"/>
<path d="M416.667 23.5H407.333C406.597 23.5 406 24.097 406 24.8333V34.1667C406 34.903 406.597 35.5 407.333 35.5H416.667C417.403 35.5 418 34.903 418 34.1667V24.8333C418 24.097 417.403 23.5 416.667 23.5Z" fill="white"/>
<rect x="437.5" y="12" width="89" height="35" rx="16" fill="#1E1E21"/>
<path d="M458.5 35.1591C457.644 35.1591 456.915 34.9261 456.312 34.4602C455.71 33.9905 455.25 33.3106 454.932 32.4205C454.614 31.5265 454.455 30.447 454.455 29.1818C454.455 27.9242 454.614 26.8504 454.932 25.9602C455.254 25.0663 455.716 24.3845 456.318 23.9148C456.924 23.4413 457.652 23.2045 458.5 23.2045C459.348 23.2045 460.074 23.4413 460.676 23.9148C461.282 24.3845 461.744 25.0663 462.062 25.9602C462.384 26.8504 462.545 27.9242 462.545 29.1818C462.545 30.447 462.386 31.5265 462.068 32.4205C461.75 33.3106 461.29 33.9905 460.688 34.4602C460.085 34.9261 459.356 35.1591 458.5 35.1591ZM458.5 33.9091C459.348 33.9091 460.008 33.5 460.477 32.6818C460.947 31.8636 461.182 30.697 461.182 29.1818C461.182 28.1742 461.074 27.3163 460.858 26.608C460.646 25.8996 460.339 25.3598 459.938 24.9886C459.54 24.6174 459.061 24.4318 458.5 24.4318C457.659 24.4318 457.002 24.8466 456.528 25.6761C456.055 26.5019 455.818 27.6705 455.818 29.1818C455.818 30.1894 455.924 31.0455 456.136 31.75C456.348 32.4545 456.653 32.9905 457.051 33.358C457.453 33.7254 457.936 33.9091 458.5 33.9091ZM465.705 33.5114C465.424 33.5114 465.184 33.411 464.983 33.2102C464.782 33.0095 464.682 32.7689 464.682 32.4886C464.682 32.2083 464.782 31.9678 464.983 31.767C465.184 31.5663 465.424 31.4659 465.705 31.4659C465.985 31.4659 466.225 31.5663 466.426 31.767C466.627 31.9678 466.727 32.2083 466.727 32.4886C466.727 32.6742 466.68 32.8447 466.585 33C466.494 33.1553 466.371 33.2803 466.216 33.375C466.064 33.4659 465.894 33.5114 465.705 33.5114ZM465.705 27.625C465.424 27.625 465.184 27.5246 464.983 27.3239C464.782 27.1231 464.682 26.8826 464.682 26.6023C464.682 26.322 464.782 26.0814 464.983 25.8807C465.184 25.6799 465.424 25.5795 465.705 25.5795C465.985 25.5795 466.225 25.6799 466.426 25.8807C466.627 26.0814 466.727 26.322 466.727 26.6023C466.727 26.7879 466.68 26.9583 466.585 27.1136C466.494 27.2689 466.371 27.3939 466.216 27.4886C466.064 27.5795 465.894 27.625 465.705 27.625ZM473.202 23.3636V35H471.793V24.8409H471.724L468.884 26.7273V25.2955L471.793 23.3636H473.202ZM476.276 32.6136V31.4545L481.389 23.3636H482.23V25.1591H481.662L477.798 31.2727V31.3636H484.685V32.6136H476.276ZM481.753 35V32.2614V31.7216V23.3636H483.094V35H481.753ZM487.814 33.5114C487.534 33.5114 487.293 33.411 487.092 33.2102C486.892 33.0095 486.791 32.7689 486.791 32.4886C486.791 32.2083 486.892 31.9678 487.092 31.767C487.293 31.5663 487.534 31.4659 487.814 31.4659C488.094 31.4659 488.335 31.5663 488.536 31.767C488.736 31.9678 488.837 32.2083 488.837 32.4886C488.837 32.6742 488.789 32.8447 488.695 33C488.604 33.1553 488.481 33.2803 488.325 33.375C488.174 33.4659 488.003 33.5114 487.814 33.5114ZM487.814 27.625C487.534 27.625 487.293 27.5246 487.092 27.3239C486.892 27.1231 486.791 26.8826 486.791 26.6023C486.791 26.322 486.892 26.0814 487.092 25.8807C487.293 25.6799 487.534 25.5795 487.814 25.5795C488.094 25.5795 488.335 25.6799 488.536 25.8807C488.736 26.0814 488.837 26.322 488.837 26.6023C488.837 26.7879 488.789 26.9583 488.695 27.1136C488.604 27.2689 488.481 27.3939 488.325 27.4886C488.174 27.5795 488.003 27.625 487.814 27.625ZM495.016 35.1591C494.16 35.1591 493.43 34.9261 492.828 34.4602C492.226 33.9905 491.766 33.3106 491.447 32.4205C491.129 31.5265 490.97 30.447 490.97 29.1818C490.97 27.9242 491.129 26.8504 491.447 25.9602C491.769 25.0663 492.232 24.3845 492.834 23.9148C493.44 23.4413 494.167 23.2045 495.016 23.2045C495.864 23.2045 496.589 23.4413 497.192 23.9148C497.798 24.3845 498.26 25.0663 498.578 25.9602C498.9 26.8504 499.061 27.9242 499.061 29.1818C499.061 30.447 498.902 31.5265 498.584 32.4205C498.266 33.3106 497.805 33.9905 497.203 34.4602C496.601 34.9261 495.872 35.1591 495.016 35.1591ZM495.016 33.9091C495.864 33.9091 496.523 33.5 496.993 32.6818C497.463 31.8636 497.697 30.697 497.697 29.1818C497.697 28.1742 497.589 27.3163 497.374 26.608C497.161 25.8996 496.855 25.3598 496.453 24.9886C496.055 24.6174 495.576 24.4318 495.016 24.4318C494.175 24.4318 493.518 24.8466 493.044 25.6761C492.571 26.5019 492.334 27.6705 492.334 29.1818C492.334 30.1894 492.44 31.0455 492.652 31.75C492.864 32.4545 493.169 32.9905 493.567 33.358C493.968 33.7254 494.451 33.9091 495.016 33.9091ZM505.016 35.1591C504.16 35.1591 503.43 34.9261 502.828 34.4602C502.226 33.9905 501.766 33.3106 501.447 32.4205C501.129 31.5265 500.97 30.447 500.97 29.1818C500.97 27.9242 501.129 26.8504 501.447 25.9602C501.769 25.0663 502.232 24.3845 502.834 23.9148C503.44 23.4413 504.167 23.2045 505.016 23.2045C505.864 23.2045 506.589 23.4413 507.192 23.9148C507.798 24.3845 508.26 25.0663 508.578 25.9602C508.9 26.8504 509.061 27.9242 509.061 29.1818C509.061 30.447 508.902 31.5265 508.584 32.4205C508.266 33.3106 507.805 33.9905 507.203 34.4602C506.601 34.9261 505.872 35.1591 505.016 35.1591ZM505.016 33.9091C505.864 33.9091 506.523 33.5 506.993 32.6818C507.463 31.8636 507.697 30.697 507.697 29.1818C507.697 28.1742 507.589 27.3163 507.374 26.608C507.161 25.8996 506.855 25.3598 506.453 24.9886C506.055 24.6174 505.576 24.4318 505.016 24.4318C504.175 24.4318 503.518 24.8466 503.044 25.6761C502.571 26.5019 502.334 27.6705 502.334 29.1818C502.334 30.1894 502.44 31.0455 502.652 31.75C502.864 32.4545 503.169 32.9905 503.567 33.358C503.968 33.7254 504.451 33.9091 505.016 33.9091Z" fill="white"/>
<rect x="555" y="12" width="35" height="35" rx="17.5" fill="#487AB3"/>
<path d="M569.833 25.5H578.5" stroke="white" stroke-width="1.5" stroke-linecap="round" stroke-linejoin="round"/>
<path d="M569.833 29.5H578.5" stroke="white" stroke-width="1.5" stroke-linecap="round" stroke-linejoin="round"/>
<path d="M569.833 33.5H578.5" stroke="white" stroke-width="1.5" stroke-linecap="round" stroke-linejoin="round"/>
<path d="M566.5 25.5H566.506" stroke="white" stroke-width="1.5" stroke-linecap="round" stroke-linejoin="round"/>
<path d="M566.5 29.5H566.506" stroke="white" stroke-width="1.5" stroke-linecap="round" stroke-linejoin="round"/>
<path d="M566.5 33.5H566.506" stroke="white" stroke-width="1.5" stroke-linecap="round" stroke-linejoin="round"/>
<rect x="598" y="12" width="35" height="35" rx="17.5" fill="#2B4A6D"/>
<path d="M622.167 28.8867V29.5001C622.166 30.9377 621.7 32.3365 620.839 33.488C619.979 34.6394 618.769 35.4817 617.39 35.8893C616.012 36.297 614.538 36.248 613.19 35.7498C611.841 35.2516 610.69 34.3308 609.907 33.1248C609.125 31.9188 608.753 30.4921 608.848 29.0576C608.942 27.6231 609.498 26.2576 610.432 25.1648C611.366 24.072 612.628 23.3103 614.031 22.9935C615.433 22.6767 616.9 22.8216 618.213 23.4067" stroke="white" stroke-width="1.5" stroke-linecap="round" stroke-linejoin="round"/>
<path d="M622.167 24.1667L615.5 30.8401L613.5 28.8401" stroke="white" stroke-width="1.5" stroke-linecap="round" stroke-linejoin="round"/>
<defs>
<linearGradient id="paint0_linear_95_1928" x1="338.537" y1="-70" x2="339.142" y2="59.0049" gradientUnits="userSpaceOnUse">
<stop offset="0.404939" stop-color="white"/>
<stop offset="0.724208" stop-color="#1D2D40"/>
</linearGradient>
</defs>
</svg>
